# xmcd
#
# Track frame offsets:
#	150
#	21750
#	44265
#	70265
#	94503
#	112810
#	144013
#	162065
#
# Disc length: 2658 seconds
#
# Revision: 1
# Processed by: cddbd v1.5PL3 Copyright (c) Steve Scherf et al.
# Submitted via: CDex 1.50Beta5
#
DISCID=550a6008
DTITLE=Ju Ju - Black Face
DYEAR=2003
DGENRE=R&B
TTITLE0=My Fanny Valentine
TTITLE1=This Feels Like Love
TTITLE2=Ju Ju's GoGo Medley No.1
TTITLE3=Never Gonna Give You Up
TTITLE4=Sweet Love
TTITLE5=Ju Ju's GoGo Medley No.2
TTITLE6=Lock The Door
TTITLE7=People Make The World Go Round
EXTD=
EXTT0=
EXTT1=
EXTT2=
EXTT3=
EXTT4=
EXTT5=
EXTT6=
EXTT7=
PLAYORDER=
